<svg width="128" height="128" viewBox="0 0 128 128" fill="none" xmlns="http://www.w3.org/2000/svg">
<path d="M55.8719 0.337616C44.3214 1.83812 33.7459 6.26461 24.4955 13.417C21.5704 15.6928 16.5952 20.5944 14.1701 23.5954C7.26976 32.1483 2.69456 42.2517 0.744477 53.2554C0.0444464 57.1567 -0.230566 66.5349 0.219454 70.8113C2.26954 89.8678 12.795 107.124 28.8707 117.652C37.2211 123.129 46.3215 126.43 56.2469 127.655C61.3221 128.256 70.0975 128.056 74.9977 127.18C88.0483 124.855 99.2487 119.128 108.724 109.874C119.325 99.521 125.675 86.8167 127.625 71.9117C128.125 68.0354 128.125 60.0827 127.625 55.9814C125.325 37.4251 114.874 20.6695 99.1237 10.316C90.8984 4.91415 81.748 1.56303 71.9976 0.337616C68.1974 -0.112534 59.472 -0.112534 55.8719 0.337616ZM72.2476 7.08989C92.0984 10.0909 109.224 23.3204 116.85 41.5515C119.35 47.4785 120.8 53.5805 121.3 60.0577C122.15 71.2115 119.3 83.3656 113.524 93.0438L111.949 95.6947L110.024 93.1439C102.974 83.7907 92.7235 76.5133 81.523 72.9621L78.9479 72.1618L79.7979 71.5116C84.1481 68.1354 87.5232 62.9837 88.8733 57.6069C90.4234 51.5048 89.7483 45.2277 86.9732 39.6258C84.3481 34.3241 79.5479 29.8225 74.0727 27.4717C70.6975 26.0463 68.3224 25.6211 63.9972 25.6211C59.697 25.6211 57.2719 26.0463 53.9718 27.4467C49.7466 29.2223 45.1714 33.0236 42.6213 36.8499C35.171 48.0787 37.6211 63.3338 48.1965 71.5116L49.0466 72.1618L46.4715 72.9621C37.3711 75.863 29.1957 80.9398 22.4204 87.9671C20.9454 89.4926 18.8953 91.8684 17.8952 93.2189L16.0451 95.6947L14.4701 93.0438C10.7699 86.8417 8.2698 79.7394 7.09475 71.9867C6.46973 68.0354 6.46973 59.9577 7.06975 55.9814C9.31985 41.3514 16.6202 28.5221 27.9957 19.219C32.7459 15.3177 39.6462 11.5664 45.8714 9.5157C50.6466 7.91517 54.0718 7.21493 59.872 6.61473C61.8721 6.41466 69.6975 6.71476 72.2476 7.08989ZM67.6224 32.4984C69.7725 32.8736 72.6976 34.074 74.3977 35.2494C78.5979 38.1754 81.398 42.1517 82.523 46.9033C83.1981 49.7543 83.0981 53.9307 82.248 56.6066C80.6229 61.7583 77.0978 65.9097 72.3976 68.2105C69.3475 69.711 67.6474 70.0861 63.9972 70.0861C60.3471 70.0861 58.647 69.711 55.5969 68.2105C49.1216 65.0344 44.9964 58.4072 44.9964 51.2548C44.9964 45.8279 47.0215 41.1264 50.9717 37.4001C55.5719 33.0736 61.2721 31.3981 67.6224 32.4984ZM70.5475 77.3635C83.3231 79.0391 94.7736 85.3662 103.149 95.3196C104.974 97.4953 107.499 101.047 107.499 101.447C107.499 101.772 101.574 107.524 99.6238 109.049C91.8984 115.176 82.248 119.353 71.9976 120.928C68.0224 121.528 59.972 121.528 55.9969 120.928C45.7714 119.353 36.071 115.176 28.3707 109.049C26.4206 107.524 20.4953 101.772 20.4953 101.447C20.4953 101.047 23.0204 97.4953 24.8455 95.3196C33.1459 85.4413 44.5964 79.1141 57.2469 77.3635C60.5471 76.9134 67.1474 76.9134 70.5475 77.3635Z" fill="#1BD96A"/>
</svg>
