<svg width="48" height="48" viewBox="0 0 48 48" fill="none" xmlns="http://www.w3.org/2000/svg">
<path d="M20.951 0.126567C16.6198 0.689067 12.6542 2.34844 9.18542 5.02969C8.08854 5.88282 6.22292 7.72032 5.31354 8.84532C2.72604 12.0516 1.01042 15.8391 0.279167 19.9641C0.0166667 21.4266 -0.0864583 24.9422 0.0822917 26.5453C0.485417 30.2859 1.78854 33.9516 3.81354 37.0641C4.73229 38.4703 5.53854 39.4734 6.79479 40.7578C10.7229 44.7891 15.6823 47.2266 21.326 47.8828C22.5823 48.0328 25.6385 48.0047 26.9979 47.8453C34.0104 46.9734 40.2729 43.0453 44.1823 37.0641C46.151 34.0547 47.4073 30.5953 47.8573 26.9859C48.0448 25.4672 48.0448 22.5141 47.8573 20.9859C46.9948 14.0297 43.076 7.74844 37.1698 3.86719C34.0854 1.84219 30.6542 0.585942 26.9979 0.126567C25.5729 -0.0421833 22.301 -0.0421833 20.951 0.126567ZM27.0917 2.65782C31.826 3.37032 36.0917 5.56407 39.4292 8.99532C40.5729 10.1766 41.1354 10.8797 42.0167 12.2203C45.6542 17.7516 46.5167 24.6047 44.3885 30.9047C43.3198 34.0547 41.651 36.7172 39.2417 39.1359C37.8917 40.4766 37.1417 41.1047 35.8104 41.9766C33.1198 43.7484 30.3073 44.8172 26.9979 45.3234C25.5167 45.5578 22.4885 45.5578 20.9979 45.3328C16.2073 44.5922 12.2135 42.5859 8.80104 39.1828C5.43542 35.8266 3.39167 31.7672 2.65104 26.9859C2.42604 25.4953 2.42604 22.4672 2.66042 20.9859C3.51354 15.4547 6.21354 10.7109 10.4979 7.20469C12.2792 5.74219 14.8667 4.33594 17.201 3.56719C18.9917 2.96719 20.276 2.70469 22.451 2.47969C23.201 2.40469 26.1354 2.51719 27.0917 2.65782Z" fill="#1BD96A"/>
<path d="M23.4635 14.4703C23.2948 14.5453 23.0698 14.7422 22.9666 14.9109C22.7885 15.2109 22.7791 15.3797 22.7791 18.989V22.7672H18.9917H15.2135L14.8948 22.9828C14.6885 23.1234 14.5292 23.339 14.4354 23.5922C14.3135 23.939 14.3135 24.0328 14.4354 24.3797C14.5292 24.6328 14.6885 24.8484 14.8948 24.989L15.2135 25.2047H18.9917H22.7791V28.9922V32.7703L22.9948 33.0891C23.1354 33.2953 23.351 33.4547 23.6041 33.5484C23.951 33.6703 24.0448 33.6703 24.3916 33.5484C24.6448 33.4547 24.8604 33.2953 25.001 33.0891L25.2166 32.7703V28.9922V25.2047H29.0041H32.7823L33.101 24.989C33.3073 24.8484 33.4666 24.6328 33.5604 24.3797C33.6823 24.0328 33.6823 23.939 33.5604 23.5922C33.4666 23.339 33.3073 23.1234 33.101 22.9828L32.7823 22.7672H29.0041H25.2166V18.989C25.2166 15.3703 25.2073 15.2109 25.0291 14.9109C24.8323 14.5922 24.3541 14.3297 23.9791 14.3297C23.8573 14.339 23.6229 14.3953 23.4635 14.4703Z" fill="#1BD96A"/>
</svg>
