<svg width="48" height="48" viewBox="0 0 48 48" fill="none" xmlns="http://www.w3.org/2000/svg">
<path d="M20.9672 0.12661C16.6359 0.68911 12.9422 2.20786 9.34219 4.89848C8.19844 5.75161 5.73281 8.21723 4.87969 9.36098C2.36719 12.7172 0.810938 16.3641 0.182813 20.3297C-0.0609375 21.8672 -0.0609375 26.1047 0.182813 27.6422C0.951563 32.5079 3.17344 36.9985 6.55781 40.5422C10.2516 44.4047 14.7516 46.7954 20.0672 47.7235C21.6984 48.0047 25.1578 48.0704 26.8828 47.8454C38.0203 46.4485 46.6641 37.6829 47.8734 26.5454C48.0234 25.186 47.9484 21.5485 47.7422 20.2922C46.0172 9.66098 37.5422 1.43911 26.9672 0.12661C25.5609 -0.0421404 22.2703 -0.0421404 20.9672 0.12661ZM26.6859 3.22973C34.2328 4.17661 40.9078 9.48286 43.5891 16.6735C45.0422 20.5641 45.2859 25.0922 44.2641 29.1047C42.3891 36.436 36.7266 42.1922 29.4234 44.1985C25.2703 45.3329 20.5453 45.0985 16.5047 43.5516C10.2703 41.161 5.45156 35.7985 3.71719 29.311C2.82656 25.9641 2.82656 22.0079 3.71719 18.661C4.70156 14.986 6.67969 11.611 9.39844 8.98598C14.0578 4.47661 20.2453 2.42348 26.6859 3.22973Z" fill="#5362CA"/>
<path d="M16.0922 15.0798C15.6703 15.1829 15.1078 15.7829 15.0235 16.2329C14.8641 17.0673 14.9016 17.1048 18.4641 20.6767L21.7641 23.986L18.4641 27.286C15.6047 30.1548 15.1547 30.6517 15.0703 30.9892C14.761 32.161 15.7922 33.1923 16.9641 32.8829C17.3016 32.7985 17.7985 32.3485 20.6672 29.4892L23.9672 26.1892L27.2766 29.4892C30.8953 33.1079 30.886 33.0985 31.7672 32.9017C32.2735 32.7892 32.8172 32.236 32.911 31.7392C33.0703 30.9048 33.0328 30.8673 29.4703 27.286L26.1703 23.986L29.4703 20.6767C33.0328 17.1048 33.061 17.0673 32.911 16.2235C32.8266 15.7548 32.1985 15.1267 31.7297 15.0423C30.886 14.8923 30.8485 14.9204 27.2766 18.4829L23.9672 21.7829L20.6672 18.4829C16.9828 14.8079 17.0391 14.8548 16.0922 15.0798Z" fill="#5362CA"/>
</svg>
