<svg width="48" height="48" viewBox="0 0 48 48" fill="none" xmlns="http://www.w3.org/2000/svg">
<path d="M3.98049 0.196476C3.07317 0.456436 2.26341 1.02363 1.56098 1.88623C0.809756 2.80791 0.458537 3.56417 0.195122 4.8049C0 5.69113 0 6.17561 0 23.9948C0 41.8141 0 42.2986 0.195122 43.1848C0.458537 44.4373 0.809756 45.1818 1.56098 46.0916C2.28293 46.9661 3.10244 47.5451 4.00976 47.805C4.94634 48.065 43.0439 48.065 43.9805 47.805C45.9122 47.2497 47.4341 45.3472 47.8537 42.9603C47.9707 42.2513 48 39.8289 48 26.5236C48 15.9596 47.9707 10.7013 47.8927 10.2168C47.7463 9.21244 47.1317 7.73538 46.5659 7.05003C45.9317 6.27014 45.0732 5.60842 44.3122 5.32482C43.7073 5.10031 43.3854 5.08849 34.2049 5.08849H24.7317L24.2439 3.93048C23.4146 1.96894 22.1659 0.657318 20.6341 0.184658C19.8146 -0.063488 4.84878 -0.063488 3.98049 0.196476ZM20.5366 2.9379C21.5122 3.48145 21.7268 3.85958 23.5122 8.16077C24.4098 10.335 25.2585 12.2375 25.3854 12.3793L25.6195 12.6392L34.439 12.6747C41.1512 12.7101 43.3561 12.7574 43.6293 12.8637C44.5561 13.2419 45.4049 14.2935 45.678 15.4043C45.7756 15.7942 45.8049 18.8074 45.8049 29.135V42.3695L45.5512 43.0312C45.2 43.9292 44.6732 44.6028 44.0195 44.9927L43.4634 45.3236H24H4.53659L4.07805 45.0636C3.39512 44.6855 2.8 43.9529 2.47805 43.1021L2.19512 42.3695V23.9948V5.62024L2.46829 4.91125C2.90732 3.78868 3.58049 3.06787 4.4878 2.76065C4.81951 2.6543 6.73171 2.63067 12.4878 2.64248L20.0488 2.66611L20.5366 2.9379ZM44.0585 8.06624C44.6927 8.468 45.4049 9.42514 45.6 10.1341C45.7463 10.6422 45.8049 11.1149 45.7268 11.1149C45.7073 11.1149 45.4244 10.9495 45.0927 10.7604C43.9415 10.0514 43.961 10.0514 34.9756 10.0514H26.7805L26.3122 8.92884C26.0585 8.31439 25.8537 7.77083 25.8537 7.7472C25.8537 7.71175 29.8341 7.69993 34.7122 7.71175L43.561 7.7472L44.0585 8.06624Z" fill="#1BD96A"/>
</svg>
