<svg width="48" height="48" viewBox="0 0 48 48" fill="none" xmlns="http://www.w3.org/2000/svg">
<path d="M23.4089 0.104156C23.0666 0.221888 20.5853 2.65145 11.6546 11.5777C5.42989 17.8068 0.264011 23.0406 0.167753 23.2118C-0.163805 23.8433 0.018017 24.8708 0.520701 25.3203C1.03408 25.7698 1.95389 25.9089 2.49935 25.6307C2.63839 25.5557 7.53689 20.7287 13.3659 14.8956L23.9864 4.2783L34.6497 14.9491C44.2221 24.5176 45.3665 25.6307 45.773 25.7377C47.0778 26.0695 48.2757 24.8708 47.9441 23.565C47.8372 23.1583 46.6607 21.9489 36.468 11.7383C30.2218 5.47703 24.9918 0.296808 24.8421 0.211185C24.3928 -0.0242786 23.8581 -0.067091 23.4089 0.104156Z" fill="#1BD96A"/>
<path d="M5.93258 27.6642C5.74006 27.782 5.49406 28.0281 5.37641 28.2208C5.1732 28.5633 5.16251 28.7773 5.16251 34.6854C5.16251 40.4007 5.1732 40.8395 5.37641 41.5888C5.77214 43.1193 6.52082 44.4357 7.60106 45.5167C8.39252 46.3088 9.01285 46.7369 10.1145 47.2506C11.8044 48.0319 11.2054 47.9998 24.0185 47.9998C35.131 47.9998 35.5161 47.9891 36.3717 47.7858C38.7889 47.2078 40.7889 45.5917 41.9654 43.2905C42.7782 41.6851 42.7462 42.0383 42.7782 34.9422C42.8103 28.7131 42.8103 28.5633 42.5964 28.2208C42.2756 27.707 41.7943 27.4502 41.0991 27.4502C40.4039 27.4502 39.9226 27.707 39.6017 28.2208C39.3985 28.5633 39.3878 28.7773 39.3878 34.1395C39.3878 40.2937 39.3557 40.6362 38.7354 41.8028C37.9974 43.1728 36.5214 44.2324 35.0027 44.4678C34.0615 44.607 13.9113 44.607 12.9702 44.4678C11.4514 44.2324 9.97544 43.1728 9.24815 41.8135C8.61712 40.6255 8.58504 40.3044 8.58504 34.1395C8.58504 28.7773 8.57434 28.5633 8.37113 28.2208C8.25348 28.0281 8.00748 27.782 7.81497 27.6642C7.33367 27.3752 6.41387 27.3752 5.93258 27.6642Z" fill="#1BD96A"/>
</svg>
