<svg width="48" height="48" viewBox="0 0 48 48" fill="none" xmlns="http://www.w3.org/2000/svg">
<path d="M2.62757 0.17809C1.61408 0.543643 0.760117 1.31224 0.272141 2.29643L0 2.85882V21.9801V41.1013L0.300293 41.7106C0.469208 42.048 0.731965 42.4698 0.882111 42.6573C1.539 43.4446 1.82991 43.5665 8.66158 45.8442L15.1085 48L16.0938 47.9719C16.9947 47.9438 17.1449 47.9156 17.7173 47.6344C18.4774 47.2595 19.1812 46.594 19.5097 45.9473C19.9132 45.1599 20.0352 44.5038 20.0352 43.1916V41.9918H23.7326C27.4299 41.9918 27.4393 41.9918 28.19 41.7575C30.0293 41.1763 31.5026 39.5454 31.9062 37.6333C32.0188 37.1084 32.0469 36.0211 32.0469 32.1031C32.0469 27.2291 32.0469 27.2197 31.8405 26.8073C31.5402 26.2355 31.2211 26.0293 30.5736 25.9824C30.1138 25.9543 29.973 25.9824 29.7009 26.1699C29.5226 26.2917 29.2786 26.5354 29.166 26.7042L28.9501 27.0228V31.8688C28.9501 37.3146 28.9501 37.3333 28.2933 38.0738C28.0774 38.3175 27.7208 38.5893 27.4299 38.7206C26.9419 38.9455 26.8856 38.9455 23.4886 38.9736L20.0352 39.0018V23.3579C20.0352 13.1787 19.9977 7.53603 19.9413 7.20797C19.7537 6.22378 19.0968 5.23023 18.2428 4.63035C18.0176 4.471 17.0229 4.07733 15.8686 3.68366L13.8886 3.00879L20.4106 3.02753L26.9326 3.04628L27.4299 3.27124C27.7208 3.40246 28.0774 3.67428 28.2933 3.91798C28.9501 4.65846 28.9501 4.67721 28.9501 10.123V14.969L29.166 15.2876C29.2786 15.4564 29.5226 15.7001 29.7009 15.8219C29.973 16.0094 30.1138 16.0375 30.5736 16.0094C31.2211 15.9625 31.5402 15.7563 31.8405 15.1845C32.0469 14.7721 32.0469 14.7627 32.0469 9.88869C32.0469 5.97071 32.0188 4.88342 31.9062 4.35852C31.5026 2.4464 30.0293 0.815465 28.19 0.234329L27.4393 -4.58211e-07H15.268C3.76305 0.00937271 3.06862 0.0187459 2.62757 0.17809ZM10.2287 5.08963C13.532 6.19566 16.3284 7.14235 16.4504 7.20797C16.9666 7.48916 16.9384 6.31752 16.9384 25.9543C16.9384 36.9959 16.9009 44.1289 16.854 44.2695C16.7038 44.6538 16.3754 44.8975 16.0094 44.8975C15.8217 44.8975 12.9501 43.9883 9.58123 42.8729C4.94545 41.3263 3.4346 40.7827 3.27507 40.6233C3.16246 40.5015 3.04985 40.239 3.01232 40.0422C2.90909 39.4142 2.94663 4.19918 3.04985 3.82425C3.17185 3.40246 3.53783 3.09315 3.93196 3.09315C4.0915 3.09315 6.92551 3.99297 10.2287 5.08963Z" fill="#1BD96A"/>
<path d="M38.1654 12.1851C37.715 12.4569 37.4898 12.8881 37.4898 13.4786C37.4898 13.7504 37.5367 14.0691 37.593 14.1816C37.6493 14.2941 38.8411 15.5407 40.2393 16.9373L42.7918 19.4962H34.8622H26.9326L26.5948 19.7211C25.7314 20.3117 25.7314 21.6801 26.5948 22.2706L26.9326 22.4956H34.8622H42.7918L40.2393 25.0451C38.8411 26.4511 37.6493 27.6977 37.593 27.8102C37.5367 27.9227 37.4898 28.2414 37.4898 28.5132C37.4898 29.4224 38.0622 29.9941 38.9725 29.9941C39.2446 29.9941 39.5637 29.9473 39.6763 29.891C39.9672 29.7411 47.6998 22.0363 47.8687 21.727C47.9437 21.5864 48.0001 21.2583 48.0001 20.9959C48.0001 20.7334 47.9437 20.4054 47.8687 20.2648C47.6998 19.9555 39.9672 12.2507 39.6763 12.1008C39.3385 11.932 38.5127 11.9789 38.1654 12.1851Z" fill="#1BD96A"/>
</svg>
