<svg width="128" height="128" viewBox="0 0 128 128" fill="none" xmlns="http://www.w3.org/2000/svg">
<path d="M58.6375 0.5765C50.8236 2.65147 44.1097 8.6014 38.75 18.2013L37.3395 20.7513L35.0828 20.5513C33.8415 20.4513 30.0897 20.3763 26.761 20.4013C21.6551 20.4263 20.2729 20.5013 18.0725 20.9513C7.12732 23.1762 0.667388 29.3262 0.046783 38.0511C-0.432775 44.926 2.78309 53.1009 9.29944 61.5508C10.2021 62.7258 10.9638 63.8508 10.9638 64.0008C10.9638 64.1507 10.2021 65.2757 9.29944 66.4507C-4.88985 84.8505 -2.66131 100.9 14.772 106.2C18.5521 107.35 20.9499 107.625 27.1841 107.625C30.4564 107.625 34.0672 107.55 35.2238 107.45L37.3395 107.275L38.75 109.8C45.4074 121.7 54.0958 128 63.8845 128C69.0186 128 73.1935 126.6 77.7917 123.325C81.6845 120.575 86.1416 115.3 89.16 109.925L90.6551 107.225L91.6424 107.35C92.1784 107.425 95.3096 107.575 98.5537 107.65C103.124 107.775 105.126 107.7 107.299 107.425C115.79 106.275 121.883 103 125.409 97.7504C126.368 96.3004 127.412 93.4254 127.75 91.2254C128.851 84.3005 125.494 75.2506 118.526 66.3257L116.721 64.0008L118.498 61.7008C128.089 49.4009 130.543 37.9761 125.296 30.0012C123.237 26.9012 119.203 23.9012 114.915 22.3012C112.715 21.5013 109.245 20.7763 106.17 20.4513C103.519 20.2013 94.0684 20.3263 91.6424 20.6513L90.6551 20.7763L89.0472 17.9013C83.6874 8.3764 76.6069 2.22648 68.8493 0.476501C65.8309 -0.198486 61.4585 -0.148499 58.6375 0.5765ZM67.6927 6.47643C70.4572 7.30142 72.5165 8.55141 75.3092 11.0014C78.1584 13.5013 80.7536 16.7013 82.6437 20.0513L83.7438 21.9762L82.5308 22.2512C77.4249 23.4262 70.7393 25.4012 66.3105 27.0762L63.9691 27.9762L61.6559 27.1012C57.1424 25.3762 50.9928 23.5512 45.4638 22.2512L44.2508 21.9762L45.2663 20.1763C49.1874 13.2764 54.6882 8.22641 60.1326 6.50143C62.1355 5.85143 65.6334 5.85143 67.6927 6.47643ZM32.9106 26.4012C33.8698 26.4762 34.6596 26.6262 34.6596 26.7262C34.6596 26.8262 34.3493 27.7512 33.9544 28.7762C32.5157 32.4511 30.7667 39.151 29.8922 44.176L29.3563 47.101L27.5791 48.4509C26.5917 49.2009 23.4605 51.8759 20.6678 54.4009L15.5337 58.9758L14.49 57.5508C8.84809 50.0509 6.08358 42.626 6.92986 37.4011C7.57867 33.4011 10.1175 30.3761 14.4617 28.5012C19.2855 26.4012 24.7299 25.7762 32.9106 26.4012ZM106.904 26.6262C114.295 27.8512 118.611 30.5511 120.444 35.1261C121.29 37.2511 121.319 41.551 120.472 44.401C119.259 48.4259 117.115 52.6009 113.9 57.0258L112.461 59.0008L107.609 54.6759C104.957 52.2759 101.826 49.5509 100.641 48.6009L98.4973 46.876L98.1306 44.501C97.5382 40.401 95.3661 32.1011 93.9274 28.4012C93.5889 27.5762 93.335 26.8262 93.335 26.7262C93.335 26.1762 103.688 26.1012 106.904 26.6262ZM45.6895 28.6012C49.6952 29.5762 54.9421 31.1261 55.2806 31.4261C55.4217 31.5511 54.7446 32.0261 53.7573 32.4761C50.3722 34.1011 44.0815 37.5511 40.64 39.651C37.7626 41.401 37.1985 41.676 37.3395 41.201C37.3959 40.876 37.7908 39.326 38.1858 37.7511C39.1449 33.8011 41.3452 27.7512 41.8248 27.7512C42.0222 27.7512 43.743 28.1262 45.6895 28.6012ZM87.411 30.1761C88.2573 32.5261 90.2602 39.201 90.6269 40.951L90.7962 41.801L89.4421 40.926C85.9724 38.676 78.6379 34.6011 74.5194 32.6261C73.391 32.0761 72.4601 31.5761 72.4601 31.5011C72.4601 31.1511 84.5055 27.8012 85.9159 27.7762C86.4519 27.7512 86.6494 28.0762 87.411 30.1761ZM67.862 36.4261C75.7324 40.051 81.3742 43.176 88.5676 47.9259C92.7708 50.6759 92.2912 49.5759 92.8272 58.1758C93.0811 62.7508 93.0811 65.2507 92.8272 69.8257C92.2912 78.4506 92.7708 77.3256 88.4266 80.2006C81.2896 84.9005 74.3501 88.7255 67.1567 91.9504L63.9691 93.3754L60.4147 91.7504C52.911 88.3255 45.3509 84.1255 39.1167 79.9506C35.3648 77.4256 35.7034 78.0256 35.2238 72.9256C34.716 67.1507 34.9417 55.2259 35.6751 51.1009C35.788 50.4509 36.3522 49.9259 39.1167 48.0759C43.0096 45.426 47.918 42.501 52.4315 40.126C56.2115 38.1261 63.4049 34.7761 63.9127 34.7511C64.1101 34.7511 65.8873 35.5011 67.862 36.4261ZM28.3125 64.0258V72.0257L25.7737 69.7007C24.3632 68.4257 22.5014 66.6257 21.5705 65.6757L19.9344 64.0008L21.5705 62.3258C22.9245 60.9508 28.1715 56.0008 28.2843 56.0008C28.3125 56.0008 28.3125 59.6008 28.3125 64.0258ZM104.647 60.6008C106.481 62.4008 108.004 63.9258 108.004 64.0008C108.004 64.2507 101.262 70.7007 100.472 71.2007L99.6821 71.7007V64.0008V56.3008L100.472 56.8008C100.923 57.0758 102.785 58.8008 104.647 60.6008ZM27.2688 79.2756L29.3281 80.8756L29.864 83.8755C30.9078 89.5755 32.0361 93.9504 33.8415 98.9753C34.2929 100.25 34.6314 101.35 34.575 101.425C34.2929 101.675 27.2688 101.875 24.4196 101.7C16.6903 101.25 10.5971 98.5253 8.2839 94.5004C6.1682 90.8004 6.28104 85.7505 8.62241 80.2506C10.0329 76.9756 12.346 73.0756 14.6874 70.0507L15.5055 68.9757L20.3575 73.3256C23.0374 75.7256 26.1404 78.4006 27.2688 79.2756ZM114.21 71.3757C116.326 74.2506 119.147 79.5006 119.993 82.1255C122.757 90.6254 120.613 96.4254 113.589 99.5003C109.358 101.325 107.665 101.6 100.19 101.6C96.6073 101.625 93.5889 101.55 93.476 101.475C93.3914 101.375 93.7017 100.25 94.1531 98.9753C95.902 94.0254 97.2561 88.8505 98.2434 83.2505L98.6665 80.8756L100.444 79.5256C101.431 78.8006 104.506 76.1256 107.299 73.6256C110.091 71.1007 112.461 69.1257 112.546 69.2257C112.658 69.3007 113.392 70.2757 114.21 71.3757ZM42.7557 89.6505C46.169 91.6004 51.021 94.2004 53.4752 95.3754C54.6036 95.9254 55.4499 96.4254 55.3088 96.5504C54.7446 97.0504 45.3227 99.7003 42.5018 100.125L41.4581 100.3L40.1886 96.7254C39.4834 94.7504 38.5807 91.8504 38.1858 90.2504C37.7908 88.6755 37.3959 87.1255 37.3113 86.8005C37.1985 86.2755 37.3113 86.3005 38.7218 87.2255C39.568 87.7755 41.3734 88.8755 42.7557 89.6505ZM89.9499 89.6255C88.5958 94.9754 86.7058 100.25 86.1698 100.25C85.0979 100.25 74.3501 97.3754 72.9114 96.7004C72.4319 96.4754 72.5447 96.3504 73.8988 95.7004C78.2712 93.5254 83.9131 90.4504 87.0725 88.5005C89.0472 87.3005 90.6833 86.3255 90.7115 86.3505C90.7397 86.3755 90.4012 87.8505 89.9499 89.6255ZM66.2823 100.875C70.8522 102.625 76.9736 104.45 82.5308 105.75L83.7438 106.025L82.6437 107.95C80.6972 111.4 78.1584 114.5 75.1682 117.125C72.7986 119.2 71.8677 119.825 69.7802 120.75L67.2414 121.875H63.9973H60.7532L58.3272 120.8C53.5316 118.7 48.7361 113.925 45.2663 107.825L44.2508 106.025L45.4638 105.75C50.9928 104.45 57.5092 102.5 61.5995 100.925C62.8407 100.45 63.8845 100.05 63.9127 100.025C63.9409 100 64.9846 100.4 66.2823 100.875Z" fill="#1BD96A"/>
<path d="M60.9507 52.8759C56.0141 53.8259 52.093 57.6008 51.2749 62.2008C50.1183 68.4507 54.8857 74.2756 61.9663 75.2756C69.0186 76.2756 75.5914 72.0757 76.7197 65.8257C77.8199 59.8508 73.4474 54.1009 66.9029 52.8759C64.5615 52.4259 63.2639 52.4259 60.9507 52.8759ZM65.8309 58.7758C66.5362 58.9508 67.4671 59.5008 68.2569 60.2258C70.8522 62.5008 70.8522 65.5007 68.2569 67.7757C65.6899 70.0757 62.3048 70.0757 59.7377 67.7757C57.1989 65.5507 57.1425 62.6008 59.5685 60.3258C61.3457 58.6758 63.3767 58.1758 65.8309 58.7758Z" fill="#1BD96A"/>
</svg>
