<svg width="48" height="48" viewBox="0 0 48 48" fill="none" xmlns="http://www.w3.org/2000/svg">
<path d="M2.96129 0.189802C1.72717 0.7331 0.596983 2.11463 0.181281 3.57377C-0.130496 4.69141 -0.0265703 6.78699 0.389132 7.79597C0.791843 8.78943 1.70119 9.87602 2.5326 10.3572L3.18213 10.7453H24.0322H44.8822L45.5318 10.3572C46.3632 9.87602 47.2725 8.78943 47.6752 7.79597C47.961 7.12849 48 6.80251 48 5.38994C48 3.97736 47.961 3.65138 47.6752 2.9839C47.2725 1.99045 46.3632 0.903851 45.5318 0.422645L44.8822 0.0345745L24.1621 0.00352859C6.8455 -0.0119944 3.364 0.0190516 2.96129 0.189802ZM44.8173 1.9594C46.0514 2.72002 46.636 3.83766 46.636 5.38994C46.636 6.94222 46.0514 8.05986 44.8173 8.82047L44.2327 9.19302H24.0322H3.83166L3.24708 8.82047C2.01297 8.05986 1.42839 6.94222 1.42839 5.38994C1.42839 3.48063 2.49362 1.99045 4.09148 1.64894C4.37727 1.58685 13.5227 1.55581 24.4219 1.57133L44.2327 1.58685L44.8173 1.9594Z" fill="#1BD96A"/>
<path d="M2.96129 18.8172C1.72717 19.3604 0.596983 20.742 0.181281 22.2011C-0.130496 23.3188 -0.0265703 25.4143 0.389132 26.4233C0.791843 27.4168 1.70119 28.5034 2.5326 28.9846L3.18213 29.3727H24.0322H44.8822L45.5318 28.9846C46.3632 28.5034 47.2725 27.4168 47.6752 26.4233C47.961 25.7558 48 25.4299 48 24.0173C48 22.6047 47.961 22.2787 47.6752 21.6113C47.2725 20.6178 46.3632 19.5312 45.5318 19.05L44.8822 18.6619L24.1621 18.6309C6.8455 18.6154 3.364 18.6464 2.96129 18.8172ZM44.8173 20.5868C46.0514 21.3474 46.636 22.465 46.636 24.0173C46.636 25.5696 46.0514 26.6872 44.8173 27.4478L44.2327 27.8204H24.0322H3.83166L3.24708 27.4478C2.01297 26.6872 1.42839 25.5696 1.42839 24.0173C1.42839 22.108 2.49362 20.6178 4.09148 20.2763C4.37727 20.2142 13.5227 20.1832 24.4219 20.1987L44.2327 20.2142L44.8173 20.5868Z" fill="#1BD96A"/>
<path d="M2.96129 37.4445C1.72717 37.9878 0.596983 39.3693 0.181281 40.8285C-0.130496 41.9461 -0.0265703 44.0417 0.389132 45.0507C0.791843 46.0441 1.70119 47.1307 2.5326 47.6119L3.18213 48H24.0322H44.8822L45.5318 47.6119C46.3632 47.1307 47.2725 46.0441 47.6752 45.0507C47.961 44.3832 48 44.0572 48 42.6446C48 41.2321 47.961 40.9061 47.6752 40.2386C47.2725 39.2451 46.3632 38.1586 45.5318 37.6773L44.8822 37.2893L24.1621 37.2582C6.8455 37.2427 3.364 37.2738 2.96129 37.4445ZM44.8173 39.2141C46.0514 39.9747 46.636 41.0924 46.636 42.6446C46.636 44.1969 46.0514 45.3146 44.8173 46.0752L44.2327 46.4477H24.0322H3.83166L3.24708 46.0752C2.01297 45.3146 1.42839 44.1969 1.42839 42.6446C1.42839 40.7353 2.49362 39.2451 4.09148 38.9036C4.37727 38.8416 13.5227 38.8105 24.4219 38.826L44.2327 38.8416L44.8173 39.2141Z" fill="#1BD96A"/>
</svg>
