<svg width="16" height="16" viewBox="0 0 16 16" fill="none" xmlns="http://www.w3.org/2000/svg">
<path d="M7.32969 0.0720625C6.35295 0.331434 5.51371 1.07517 4.84375 2.27516L4.66744 2.59391L4.38535 2.56891C4.23019 2.55641 3.76121 2.54704 3.34513 2.55016C2.70689 2.55329 2.53411 2.56266 2.25906 2.61891C0.890915 2.89702 0.0834235 3.66578 0.00584787 4.75639C-0.0540969 5.61575 0.347886 6.63761 1.16243 7.69385C1.27526 7.84073 1.37048 7.98135 1.37048 8.0001C1.37048 8.01884 1.27526 8.15946 1.16243 8.30634C-0.611231 10.6063 -0.332664 12.6125 1.8465 13.275C2.31901 13.4187 2.61874 13.4531 3.39801 13.4531C3.80705 13.4531 4.2584 13.4437 4.40298 13.4312L4.66744 13.4094L4.84375 13.725C5.67593 15.2125 6.76198 16 7.98556 16C8.62733 16 9.14919 15.825 9.72397 15.4156C10.2106 15.0719 10.7677 14.4125 11.145 13.7406L11.3319 13.4031L11.4553 13.4187C11.5223 13.4281 11.9137 13.4469 12.3192 13.4563C12.8905 13.4719 13.1408 13.4625 13.4124 13.4281C14.4738 13.2844 15.2354 12.875 15.6761 12.2188C15.796 12.0375 15.9265 11.6782 15.9688 11.4032C16.1064 10.5376 15.6868 9.40632 14.8158 8.29071L14.5901 8.0001L14.8123 7.7126C16.0111 6.17511 16.3179 4.74701 15.662 3.75015C15.4046 3.36265 14.9004 2.98765 14.3644 2.78765C14.0894 2.68766 13.6556 2.59704 13.2713 2.55641C12.9399 2.52516 11.7586 2.54079 11.4553 2.58141L11.3319 2.59704L11.1309 2.23766C10.4609 1.04705 9.57586 0.27831 8.60616 0.0595626C8.22886 -0.0248108 7.68231 -0.0185624 7.32969 0.0720625ZM8.46159 0.809554C8.80715 0.912677 9.06456 1.06893 9.41365 1.37517C9.7698 1.68766 10.0942 2.08766 10.3305 2.50641L10.468 2.74703L10.3164 2.7814C9.67811 2.92827 8.84241 3.17515 8.28881 3.38453L7.99614 3.49703L7.70699 3.38765C7.1428 3.17203 6.3741 2.9439 5.68298 2.7814L5.53135 2.74703L5.65829 2.52204C6.14843 1.65955 6.83603 1.0283 7.51658 0.812679C7.76694 0.731429 8.20418 0.731429 8.46159 0.809554ZM4.11383 3.30015C4.23373 3.30952 4.33245 3.32828 4.33245 3.34078C4.33245 3.35328 4.29366 3.4689 4.2443 3.59702C4.06446 4.05639 3.84584 4.89387 3.73653 5.522L3.66954 5.88763L3.44739 6.05636C3.32396 6.15011 2.93256 6.48449 2.58348 6.80011L1.94171 7.37197L1.81125 7.19385C1.10601 6.25636 0.760448 5.32825 0.866233 4.67514C0.947334 4.17514 1.26469 3.79701 1.80771 3.56265C2.41069 3.30015 3.09124 3.22202 4.11383 3.30015ZM13.363 3.32827C14.2869 3.4814 14.8264 3.81889 15.0555 4.39076C15.1613 4.65639 15.1649 5.19388 15.059 5.55013C14.9074 6.05324 14.6394 6.57511 14.2375 7.12822L14.0576 7.3751L13.4511 6.83449C13.1196 6.53449 12.7283 6.19386 12.5801 6.07511L12.3122 5.8595L12.2663 5.56262C12.1923 5.05012 11.9208 4.01264 11.7409 3.55015C11.6986 3.44702 11.6669 3.35328 11.6669 3.34078C11.6669 3.27203 12.961 3.26265 13.363 3.32827ZM5.71119 3.57515C6.2119 3.69703 6.86776 3.89076 6.91008 3.92826C6.92771 3.94389 6.84308 4.00326 6.71966 4.05951C6.29653 4.26264 5.51019 4.69389 5.08 4.95638C4.72033 5.17513 4.64981 5.2095 4.66744 5.15013C4.67449 5.1095 4.72385 4.91575 4.77323 4.71889C4.89311 4.22514 5.16815 3.4689 5.2281 3.4689C5.25278 3.4689 5.46788 3.51578 5.71119 3.57515ZM10.9264 3.77201C11.0322 4.06576 11.2825 4.90013 11.3284 5.11888L11.3495 5.22512L11.1803 5.11575C10.7466 4.8345 9.82974 4.32514 9.31493 4.07826C9.17388 4.00951 9.05751 3.94701 9.05751 3.93764C9.05751 3.89389 10.5632 3.47515 10.7395 3.47202C10.8065 3.4689 10.8312 3.50952 10.9264 3.77201ZM8.48275 4.55326C9.46655 5.00638 10.1718 5.397 11.071 5.99074C11.5964 6.33449 11.5364 6.19699 11.6034 7.27198C11.6351 7.84385 11.6351 8.15634 11.6034 8.72821C11.5364 9.80632 11.5964 9.6657 11.0533 10.0251C10.1612 10.6126 9.29376 11.0907 8.39459 11.4938L7.99614 11.6719L7.55184 11.4688C6.61388 11.0407 5.66886 10.5157 4.88959 9.99382C4.4206 9.6782 4.46293 9.7532 4.40298 9.1157C4.3395 8.39384 4.36771 6.90324 4.45939 6.38761C4.4735 6.30636 4.54403 6.24074 4.88959 6.00949C5.3762 5.67825 5.98975 5.31262 6.55394 5.01575C7.02644 4.76576 7.92561 4.34701 7.98909 4.34389C8.01376 4.34389 8.23591 4.43764 8.48275 4.55326ZM3.53906 8.00323V9.00321L3.22171 8.71259C3.0454 8.55321 2.81268 8.32821 2.69631 8.20946L2.4918 8.0001L2.69631 7.79073C2.86556 7.61885 3.52144 7.0001 3.53554 7.0001C3.53906 7.0001 3.53906 7.4501 3.53906 8.00323ZM13.0809 7.5751C13.3101 7.8001 13.5005 7.99073 13.5005 8.0001C13.5005 8.03134 12.6578 8.83759 12.559 8.90009L12.4603 8.96259V8.0001V7.0376L12.559 7.1001C12.6154 7.13448 12.8481 7.3501 13.0809 7.5751ZM3.4086 9.90945L3.66601 10.1095L3.733 10.4844C3.86348 11.1969 4.00451 11.7438 4.23019 12.3719C4.28661 12.5313 4.32893 12.6688 4.32188 12.6781C4.28661 12.7094 3.4086 12.7344 3.05245 12.7125C2.08629 12.6562 1.32464 12.3157 1.03549 11.8125C0.771025 11.35 0.78513 10.7188 1.0778 10.0313C1.25411 9.62195 1.54325 9.13445 1.83593 8.75634L1.93819 8.62196L2.54469 9.1657C2.87968 9.4657 3.26755 9.80007 3.4086 9.90945ZM14.2763 8.92196C14.5408 9.28133 14.8934 9.93758 14.9991 10.2657C15.3446 11.3282 15.0766 12.0532 14.1986 12.4375C13.6698 12.6656 13.4581 12.7 12.5238 12.7C12.0759 12.7031 11.6986 12.6937 11.6845 12.6844C11.6739 12.6719 11.7127 12.5313 11.7691 12.3719C11.9878 11.7532 12.157 11.1063 12.2804 10.4063L12.3333 10.1095L12.5555 9.9407C12.6789 9.85007 13.0633 9.5157 13.4124 9.2032C13.7614 8.88759 14.0576 8.64071 14.0683 8.65321C14.0823 8.66259 14.174 8.78446 14.2763 8.92196ZM5.34446 11.2063C5.77113 11.45 6.37763 11.775 6.6844 11.9219C6.82545 11.9907 6.93124 12.0532 6.9136 12.0688C6.84308 12.1313 5.66534 12.4625 5.31273 12.5156L5.18226 12.5375L5.02358 12.0907C4.93543 11.8438 4.82259 11.4813 4.77323 11.2813C4.72385 11.0844 4.67449 10.8907 4.66391 10.8501C4.64981 10.7844 4.66391 10.7876 4.84023 10.9032C4.946 10.9719 5.17168 11.1094 5.34446 11.2063ZM11.2437 11.2032C11.0745 11.8719 10.8382 12.5312 10.7712 12.5312C10.6372 12.5312 9.29376 12.1719 9.11393 12.0876C9.05399 12.0594 9.06809 12.0438 9.23735 11.9626C9.7839 11.6907 10.4891 11.3063 10.8841 11.0626C11.1309 10.9126 11.3354 10.7907 11.3389 10.7938C11.3425 10.7969 11.3002 10.9813 11.2437 11.2032ZM8.28529 12.6094C8.85653 12.8281 9.6217 13.0563 10.3164 13.2188L10.468 13.2531L10.3305 13.4937C10.0872 13.925 9.7698 14.3125 9.39603 14.6406C9.09983 14.9 8.98346 14.9781 8.72253 15.0938L8.40518 15.2344H7.99966H7.59415L7.2909 15.1C6.69145 14.8375 6.09201 14.2406 5.65829 13.4781L5.53135 13.2531L5.68298 13.2188C6.3741 13.0563 7.18865 12.8125 7.69994 12.6156C7.85509 12.5563 7.98556 12.5063 7.98909 12.5031C7.99261 12.5 8.12308 12.55 8.28529 12.6094Z" fill="#1BD96A"/>
<path d="M7.61884 6.60951C7.00177 6.72826 6.51163 7.20012 6.40937 7.77512C6.26479 8.55636 6.86072 9.28447 7.74579 9.40947C8.62733 9.53447 9.44893 9.00948 9.58997 8.22823C9.72749 7.48137 9.18093 6.76263 8.36287 6.60951C8.07019 6.55326 7.90799 6.55326 7.61884 6.60951ZM8.22887 7.347C8.31703 7.36887 8.43339 7.43762 8.53212 7.52825C8.85653 7.81262 8.85653 8.18761 8.53212 8.47198C8.21124 8.75948 7.7881 8.75948 7.46722 8.47198C7.14987 8.19386 7.14282 7.82512 7.44607 7.54075C7.66822 7.3345 7.92209 7.272 8.22887 7.347Z" fill="#1BD96A"/>
</svg>
